<svg xmlns="http://www.w3.org/2000/svg" xmlns:xlink="http://www.w3.org/1999/xlink" id="Layer_1" x="0px" y="0px" viewBox="0 0 799 185" style="enable-background:new 0 0 799 185;" xml:space="preserve"><style type="text/css">.st0{enable-background:new    ;}	.st1{fill:#0076EA;}	.st2{fill-rule:evenodd;clip-rule:evenodd;fill:#0076EA;}</style><title>Blue Logo Lined</title><desc>Created with Sketch.</desc><g id="Page-1"><g id="Logo-White-Background-Lined" transform="translate(-100.000000, -138.000000)"><g id="Blue-Logo-Lined" transform="translate(100.000000, 108.000000)"><g class="st0"><path class="st1" d="M308.3,151.8l-15,14.8V194h-31.2V45.6h31.2v84l45.6-43.2h37.2L331.3,132l48.8,62h-37.8L308.3,151.8z"/><path class="st1" d="M500.5,86.4V194h-29.6v-12.8c-8.2,9.4-20.2,14.4-33.4,14.4c-27,0-46-15.2-46-48.4V86.4h31.2v56.2     c0,18,8,26,21.8,26c14.4,0,24.8-9.2,24.8-29V86.4H500.5z"/><path class="st1" d="M646.7,140.2c0,33.8-23.4,55.4-53.6,55.4c-14.4,0-26-4.6-33.8-14V194h-29.8V45.6h31.2v52.2     c8-8.8,19-13,32.4-13C623.3,84.8,646.7,106.4,646.7,140.2z M615.1,140.2c0-18.6-11.8-29.8-27.4-29.8s-27.4,11.2-27.4,29.8     s11.8,29.8,27.4,29.8S615.1,158.8,615.1,140.2z"/><path class="st1" d="M663.7,54c0-9.8,7.8-17.4,19.4-17.4c11.6,0,19.4,7.2,19.4,16.8c0,10.4-7.8,18-19.4,18     C671.5,71.4,663.7,63.8,663.7,54z M667.5,86.4h31.2V194h-31.2V86.4z"/><path class="st1" d="M797.1,188.8c-6.4,4.6-15.8,6.8-25.4,6.8c-25.4,0-40.2-13-40.2-38.6v-44.2h-16.6v-24h16.6V62.6h31.2v26.2     h26.8v24h-26.8v43.8c0,9.2,5,14.2,13.4,14.2c4.6,0,9.2-1.4,12.6-4L797.1,188.8z"/></g><g id="Group" transform="translate(0.000000, 30.000000)"><rect id="Rectangle" class="st2" width="55" height="55"/><rect id="Rectangle-Copy" x="65" class="st2" width="55" height="55"/><rect y="65" class="st2" width="55" height="55"/><rect x="65" y="65" class="st2" width="55" height="55"/><rect id="Rectangle-Copy-2" x="130" y="65" class="st2" width="55" height="55"/><rect x="65" y="130" class="st2" width="55" height="55"/><rect x="130" y="130" class="st2" width="55" height="55"/></g></g></g></g></svg>